{"glyphs":{"0":{"ha":703,"x_min":54,"x_max":648,"o":"m 54 0 l 54 996 l 648 996 l 648 0 l 54 0 m 410 195 l 410 800 l 293 800 l 293 195 l 410 195 z "},"1":{"ha":534,"x_min":54,"x_max":469,"o":"m 54 800 l 54 996 l 469 996 l 469 0 l 231 0 l 231 800 l 54 800 z "},"2":{"ha":703,"x_min":54,"x_max":648,"o":"m 648 652 l 293 301 l 293 195 l 648 195 l 648 0 l 54 0 l 54 334 l 410 684 l 410 800 l 293 800 l 293 648 l 54 648 l 54 996 l 648 996 l 648 652 z "},"3":{"ha":703,"x_min":54,"x_max":648,"o":"m 648 0 l 54 0 l 54 195 l 410 195 l 410 358 l 366 401 l 114 401 l 114 597 l 366 597 l 410 640 l 410 800 l 54 800 l 54 996 l 648 996 l 648 635 l 521 499 l 648 361 l 648 0 z "},"4":{"ha":703,"x_min":54,"x_max":648,"o":"m 410 0 l 410 401 l 54 401 l 54 780 l 270 997 l 648 997 l 648 0 l 410 0 m 410 597 l 410 800 l 369 800 l 290 722 l 290 597 l 410 597 z "},"5":{"ha":703,"x_min":54,"x_max":648,"o":"m 54 0 l 54 347 l 293 347 l 293 195 l 410 195 l 410 334 l 342 401 l 54 401 l 54 996 l 648 996 l 648 800 l 293 800 l 293 597 l 433 597 l 648 381 l 648 0 l 54 0 z "},"6":{"ha":703,"x_min":54,"x_max":648,"o":"m 54 0 l 54 996 l 648 996 l 648 656 l 410 656 l 410 800 l 293 800 l 293 597 l 433 597 l 648 381 l 648 0 l 54 0 m 293 195 l 410 195 l 410 334 l 342 401 l 293 401 l 293 195 z "},"7":{"ha":703,"x_min":54,"x_max":648,"o":"m 231 0 l 231 505 l 410 684 l 410 800 l 54 800 l 54 996 l 648 996 l 648 675 l 467 494 l 467 0 l 231 0 z "},"8":{"ha":703,"x_min":54,"x_max":648,"o":"m 410 358 l 366 401 l 336 401 l 293 358 l 293 195 l 410 195 l 410 358 m 410 640 l 410 800 l 293 800 l 293 640 l 336 597 l 366 597 l 410 640 m 648 996 l 648 635 l 521 499 l 648 361 l 648 0 l 54 0 l 54 361 l 182 499 l 54 635 l 54 996 l 648 996 z "},"9":{"ha":703,"x_min":54,"x_max":648,"o":"m 648 996 l 648 0 l 54 0 l 54 339 l 293 339 l 293 195 l 410 195 l 410 401 l 270 401 l 54 617 l 54 996 l 648 996 m 410 800 l 293 800 l 293 665 l 361 597 l 410 597 l 410 800 z "}," ":{"ha":305,"x_min":0,"x_max":0,"o":""},"!":{"ha":439,"x_min":68,"x_max":372,"o":"m 68 996 l 372 996 l 372 686 l 339 551 l 339 323 l 100 323 l 100 551 l 68 686 l 68 996 m 100 0 l 100 195 l 339 195 l 339 0 l 100 0 z "},"\"":{"ha":415,"x_min":54,"x_max":361,"o":"m 54 800 l 54 1093 l 179 1093 l 179 800 l 54 800 m 236 800 l 236 1093 l 361 1093 l 361 800 l 236 800 z "},"#":{"ha":933,"x_min":76,"x_max":857,"o":"m 290 996 l 529 996 l 486 792 l 575 792 l 618 996 l 857 996 l 814 792 l 854 792 l 854 597 l 773 597 l 731 401 l 803 401 l 803 206 l 689 206 l 646 0 l 407 0 l 450 206 l 361 206 l 317 0 l 79 0 l 122 206 l 76 206 l 76 401 l 164 401 l 206 597 l 127 597 l 127 792 l 247 792 l 290 996 m 403 401 l 492 401 l 534 597 l 445 597 l 403 401 z "},"$":{"ha":730,"x_min":68,"x_max":662,"o":"m 68 663 l 68 996 l 244 996 l 244 1107 l 483 1107 l 483 996 l 662 996 l 662 648 l 423 648 l 423 800 l 307 800 l 307 684 l 662 334 l 662 0 l 486 0 l 486 -114 l 247 -114 l 247 0 l 68 0 l 68 347 l 307 347 l 307 195 l 423 195 l 423 312 l 68 663 z "},"%":{"ha":859,"x_min":54,"x_max":804,"o":"m 566 996 l 804 996 l 297 0 l 58 0 l 566 996 m 54 568 l 54 994 l 323 994 l 323 568 l 54 568 m 217 675 l 217 887 l 163 887 l 163 675 l 217 675 m 534 1 l 534 427 l 803 427 l 803 1 l 534 1 m 697 109 l 697 320 l 643 320 l 643 109 l 697 109 z "},"&":{"ha":760,"x_min":62,"x_max":749,"o":"m 656 663 l 473 483 l 499 452 l 499 483 l 678 483 l 678 243 l 749 160 l 637 33 l 568 109 l 458 0 l 62 0 l 62 334 l 221 490 l 62 663 l 62 996 l 656 996 l 656 663 m 301 312 l 301 195 l 423 195 l 457 229 l 345 354 l 301 312 m 301 684 l 354 621 l 418 684 l 418 800 l 301 800 l 301 684 z "},"'":{"ha":323,"x_min":54,"x_max":269,"o":"m 54 800 l 54 1093 l 269 1093 l 269 914 l 155 800 l 54 800 z "},"(":{"ha":393,"x_min":54,"x_max":350,"o":"m 54 -38 l 54 1034 l 350 1034 l 350 838 l 293 838 l 293 157 l 350 157 l 350 -38 l 54 -38 z "},")":{"ha":393,"x_min":43,"x_max":339,"o":"m 339 -38 l 43 -38 l 43 157 l 100 157 l 100 838 l 43 838 l 43 1034 l 339 1034 l 339 -38 z "},"*":{"ha":586,"x_min":60,"x_max":526,"o":"m 197 728 l 292 635 l 385 730 l 525 593 l 431 498 l 526 404 l 389 264 l 294 358 l 201 263 l 61 400 l 155 495 l 60 589 l 197 728 z "},"+":{"ha":581,"x_min":60,"x_max":521,"o":"m 60 594 l 193 594 l 193 727 l 388 727 l 388 594 l 521 594 l 521 399 l 388 399 l 388 266 l 193 266 l 193 399 l 60 399 l 60 594 z "},",":{"ha":347,"x_min":54,"x_max":293,"o":"m 54 -103 l 54 195 l 293 195 l 293 11 l 179 -103 l 54 -103 z "},"-":{"ha":570,"x_min":54,"x_max":515,"o":"m 54 594 l 515 594 l 515 399 l 54 399 l 54 594 z "},".":{"ha":347,"x_min":54,"x_max":293,"o":"m 54 0 l 54 195 l 293 195 l 293 0 l 54 0 z "},"/":{"ha":551,"x_min":3,"x_max":548,"o":"m 309 1034 l 548 1034 l 241 -38 l 3 -38 l 309 1034 z "},":":{"ha":391,"x_min":76,"x_max":315,"o":"m 76 165 l 76 361 l 315 361 l 315 165 l 76 165 m 76 627 l 76 822 l 315 822 l 315 627 l 76 627 z "},";":{"ha":391,"x_min":76,"x_max":315,"o":"m 76 627 l 76 822 l 315 822 l 315 627 l 76 627 m 76 62 l 76 361 l 315 361 l 315 176 l 201 62 l 76 62 z "},"<":{"ha":556,"x_min":54,"x_max":502,"o":"m 54 589 l 365 895 l 502 757 l 264 522 l 502 288 l 365 149 l 54 456 l 54 589 z "},"=":{"ha":575,"x_min":57,"x_max":518,"o":"m 57 743 l 518 743 l 518 548 l 57 548 l 57 743 m 57 445 l 518 445 l 518 250 l 57 250 l 57 445 z "},">":{"ha":556,"x_min":54,"x_max":502,"o":"m 502 589 l 502 456 l 191 149 l 54 288 l 292 522 l 54 757 l 191 895 l 502 589 z "},"?":{"ha":730,"x_min":68,"x_max":662,"o":"m 244 298 l 244 505 l 423 684 l 423 800 l 307 800 l 307 656 l 68 656 l 68 996 l 662 996 l 662 675 l 480 494 l 480 298 l 244 298 m 244 0 l 244 195 l 483 195 l 483 0 l 244 0 z "},"@":{"ha":960,"x_min":76,"x_max":884,"o":"m 76 -20 l 76 842 l 250 1020 l 884 1020 l 884 209 l 317 209 l 317 652 l 439 776 l 647 776 l 647 321 l 692 321 l 692 860 l 353 860 l 271 773 l 271 138 l 884 138 l 884 -20 l 76 -20 m 452 312 l 514 312 l 514 673 l 498 673 l 452 627 l 452 312 z "},"A":{"ha":673,"x_min":41,"x_max":632,"o":"m 41 0 l 84 996 l 587 996 l 632 0 l 393 0 l 387 292 l 286 292 l 279 0 l 41 0 m 377 488 l 366 800 l 304 800 l 293 488 l 377 488 z "},"B":{"ha":703,"x_min":54,"x_max":648,"o":"m 410 358 l 366 401 l 293 401 l 293 195 l 410 195 l 410 358 m 54 996 l 648 996 l 648 635 l 521 499 l 648 361 l 648 0 l 54 0 l 54 996 m 293 597 l 366 597 l 410 640 l 410 800 l 293 800 l 293 597 z "},"C":{"ha":703,"x_min":54,"x_max":648,"o":"m 54 996 l 648 996 l 648 656 l 410 656 l 410 800 l 293 800 l 293 195 l 410 195 l 410 339 l 648 339 l 648 0 l 54 0 l 54 996 z "},"D":{"ha":703,"x_min":54,"x_max":648,"o":"m 54 0 l 54 996 l 434 996 l 648 781 l 648 0 l 54 0 m 412 198 l 412 722 l 334 800 l 293 800 l 293 198 l 412 198 z "},"E":{"ha":703,"x_min":54,"x_max":648,"o":"m 54 0 l 54 996 l 648 996 l 648 800 l 293 800 l 293 597 l 589 597 l 589 401 l 293 401 l 293 195 l 648 195 l 648 0 l 54 0 z "},"F":{"ha":703,"x_min":54,"x_max":648,"o":"m 54 0 l 54 996 l 648 996 l 648 800 l 293 800 l 293 597 l 589 597 l 589 401 l 293 401 l 293 0 l 54 0 z "},"G":{"ha":703,"x_min":54,"x_max":648,"o":"m 54 0 l 54 996 l 648 996 l 648 656 l 410 656 l 410 800 l 293 800 l 293 195 l 410 195 l 410 401 l 345 401 l 345 597 l 648 597 l 648 0 l 54 0 z "},"H":{"ha":703,"x_min":54,"x_max":648,"o":"m 54 0 l 54 996 l 293 996 l 293 597 l 410 597 l 410 996 l 648 996 l 648 0 l 410 0 l 410 401 l 293 401 l 293 0 l 54 0 z "},"I":{"ha":347,"x_min":54,"x_max":293,"o":"m 54 996 l 293 996 l 293 0 l 54 0 l 54 996 z "},"J":{"ha":703,"x_min":54,"x_max":648,"o":"m 54 0 l 54 343 l 293 343 l 293 195 l 334 195 l 412 274 l 412 996 l 648 996 l 648 214 l 434 0 l 54 0 z "},"K":{"ha":703,"x_min":54,"x_max":648,"o":"m 54 0 l 54 996 l 293 996 l 293 597 l 366 597 l 410 640 l 410 996 l 648 996 l 648 635 l 521 496 l 648 361 l 648 0 l 410 0 l 410 358 l 366 401 l 293 401 l 293 0 l 54 0 z "},"L":{"ha":703,"x_min":54,"x_max":648,"o":"m 54 996 l 293 996 l 293 195 l 648 195 l 648 0 l 54 0 l 54 996 z "},"M":{"ha":1020,"x_min":54,"x_max":966,"o":"m 54 0 l 54 996 l 410 996 l 510 488 l 610 996 l 966 996 l 966 0 l 727 0 l 727 591 l 602 0 l 418 0 l 293 591 l 293 0 l 54 0 z "},"N":{"ha":703,"x_min":54,"x_max":648,"o":"m 54 0 l 54 996 l 293 996 l 410 610 l 410 996 l 648 996 l 648 0 l 418 0 l 293 385 l 293 0 l 54 0 z "},"O":{"ha":703,"x_min":54,"x_max":648,"o":"m 54 0 l 54 996 l 648 996 l 648 0 l 54 0 m 410 195 l 410 800 l 293 800 l 293 195 l 410 195 z "},"P":{"ha":703,"x_min":54,"x_max":648,"o":"m 54 0 l 54 996 l 648 996 l 648 635 l 434 401 l 293 401 l 293 0 l 54 0 m 293 597 l 342 597 l 410 667 l 410 800 l 293 800 l 293 597 z "},"Q":{"ha":703,"x_min":54,"x_max":648,"o":"m 54 0 l 54 996 l 648 996 l 648 0 l 469 0 l 469 -141 l 231 -141 l 231 0 l 54 0 m 410 195 l 410 800 l 293 800 l 293 195 l 410 195 z "},"R":{"ha":703,"x_min":54,"x_max":648,"o":"m 54 0 l 54 996 l 648 996 l 648 635 l 521 496 l 648 361 l 648 0 l 410 0 l 410 358 l 366 401 l 293 401 l 293 0 l 54 0 m 293 597 l 366 597 l 410 640 l 410 800 l 293 800 l 293 597 z "},"S":{"ha":703,"x_min":54,"x_max":648,"o":"m 54 663 l 54 996 l 648 996 l 648 648 l 410 648 l 410 800 l 293 800 l 293 684 l 648 334 l 648 0 l 54 0 l 54 347 l 293 347 l 293 195 l 410 195 l 410 312 l 54 663 z "},"T":{"ha":703,"x_min":54,"x_max":648,"o":"m 54 800 l 54 996 l 648 996 l 648 800 l 469 800 l 469 0 l 231 0 l 231 800 l 54 800 z "},"U":{"ha":703,"x_min":54,"x_max":648,"o":"m 54 996 l 293 996 l 293 195 l 410 195 l 410 996 l 648 996 l 648 0 l 54 0 l 54 996 z "},"V":{"ha":673,"x_min":41,"x_max":632,"o":"m 393 996 l 632 996 l 587 0 l 84 0 l 41 996 l 279 996 l 304 195 l 366 195 l 393 996 z "},"W":{"ha":1023,"x_min":41,"x_max":982,"o":"m 84 0 l 41 996 l 279 996 l 304 195 l 366 195 l 393 996 l 629 996 l 656 195 l 719 195 l 743 996 l 982 996 l 939 0 l 537 0 l 521 293 l 502 293 l 486 0 l 84 0 z "},"X":{"ha":703,"x_min":54,"x_max":648,"o":"m 410 640 l 410 996 l 648 996 l 648 635 l 521 496 l 648 361 l 648 0 l 410 0 l 410 358 l 366 401 l 336 401 l 293 358 l 293 0 l 54 0 l 54 361 l 182 496 l 54 635 l 54 996 l 293 996 l 293 640 l 336 597 l 366 597 l 410 640 z "},"Y":{"ha":703,"x_min":54,"x_max":648,"o":"m 410 640 l 410 996 l 648 996 l 648 635 l 472 446 l 472 0 l 233 0 l 233 444 l 54 635 l 54 996 l 293 996 l 293 640 l 336 597 l 366 597 l 410 640 z "},"Z":{"ha":703,"x_min":54,"x_max":648,"o":"m 54 334 l 410 692 l 410 800 l 54 800 l 54 996 l 648 996 l 648 960 l 648 661 l 293 304 l 293 195 l 648 195 l 648 0 l 54 0 l 54 334 z "},"[":{"ha":393,"x_min":54,"x_max":350,"o":"m 54 -38 l 54 1034 l 350 1034 l 350 838 l 293 838 l 293 157 l 350 157 l 350 -38 l 54 -38 z "},"\\":{"ha":551,"x_min":3,"x_max":548,"o":"m 241 1034 l 548 -38 l 309 -38 l 3 1034 l 241 1034 z "},"]":{"ha":393,"x_min":43,"x_max":339,"o":"m 339 -38 l 43 -38 l 43 157 l 100 157 l 100 838 l 43 838 l 43 1034 l 339 1034 l 339 -38 z "},"^":{"ha":694,"x_min":0,"x_max":0,"o":""},"_":{"ha":570,"x_min":54,"x_max":515,"o":"m 54 195 l 515 195 l 515 0 l 54 0 l 54 195 z "},"`":{"ha":675,"x_min":92,"x_max":583,"o":"m 140 1344 l 583 1222 l 536 1048 l 92 1171 l 140 1344 z "},"a":{"ha":673,"x_min":41,"x_max":632,"o":"m 41 0 l 84 996 l 587 996 l 632 0 l 393 0 l 387 292 l 286 292 l 279 0 l 41 0 m 377 488 l 366 800 l 304 800 l 293 488 l 377 488 z "},"b":{"ha":703,"x_min":54,"x_max":648,"o":"m 410 358 l 366 401 l 293 401 l 293 195 l 410 195 l 410 358 m 54 996 l 648 996 l 648 635 l 521 499 l 648 361 l 648 0 l 54 0 l 54 996 m 293 597 l 366 597 l 410 640 l 410 800 l 293 800 l 293 597 z "},"c":{"ha":703,"x_min":54,"x_max":648,"o":"m 54 996 l 648 996 l 648 656 l 410 656 l 410 800 l 293 800 l 293 195 l 410 195 l 410 339 l 648 339 l 648 0 l 54 0 l 54 996 z "},"d":{"ha":703,"x_min":54,"x_max":648,"o":"m 54 0 l 54 996 l 434 996 l 648 781 l 648 0 l 54 0 m 412 198 l 412 722 l 334 800 l 293 800 l 293 198 l 412 198 z "},"e":{"ha":703,"x_min":54,"x_max":648,"o":"m 54 0 l 54 996 l 648 996 l 648 800 l 293 800 l 293 597 l 589 597 l 589 401 l 293 401 l 293 195 l 648 195 l 648 0 l 54 0 z "},"f":{"ha":703,"x_min":54,"x_max":648,"o":"m 54 0 l 54 996 l 648 996 l 648 800 l 293 800 l 293 597 l 589 597 l 589 401 l 293 401 l 293 0 l 54 0 z "},"g":{"ha":703,"x_min":54,"x_max":648,"o":"m 54 0 l 54 996 l 648 996 l 648 656 l 410 656 l 410 800 l 293 800 l 293 195 l 410 195 l 410 401 l 345 401 l 345 597 l 648 597 l 648 0 l 54 0 z "},"h":{"ha":703,"x_min":54,"x_max":648,"o":"m 54 0 l 54 996 l 293 996 l 293 597 l 410 597 l 410 996 l 648 996 l 648 0 l 410 0 l 410 401 l 293 401 l 293 0 l 54 0 z "},"i":{"ha":347,"x_min":54,"x_max":293,"o":"m 54 996 l 293 996 l 293 0 l 54 0 l 54 996 z "},"j":{"ha":703,"x_min":54,"x_max":648,"o":"m 54 0 l 54 343 l 293 343 l 293 195 l 334 195 l 412 274 l 412 996 l 648 996 l 648 214 l 434 0 l 54 0 z "},"k":{"ha":703,"x_min":54,"x_max":648,"o":"m 54 0 l 54 996 l 293 996 l 293 597 l 366 597 l 410 640 l 410 996 l 648 996 l 648 635 l 513 496 l 648 361 l 648 0 l 410 0 l 410 358 l 366 401 l 293 401 l 293 0 l 54 0 z "},"l":{"ha":703,"x_min":54,"x_max":648,"o":"m 54 996 l 293 996 l 293 195 l 648 195 l 648 0 l 54 0 l 54 996 z "},"m":{"ha":1020,"x_min":54,"x_max":966,"o":"m 54 0 l 54 996 l 410 996 l 510 488 l 610 996 l 966 996 l 966 0 l 727 0 l 727 591 l 602 0 l 418 0 l 293 591 l 293 0 l 54 0 z "},"n":{"ha":703,"x_min":54,"x_max":648,"o":"m 54 0 l 54 996 l 293 996 l 410 610 l 410 996 l 648 996 l 648 0 l 418 0 l 293 385 l 293 0 l 54 0 z "},"o":{"ha":703,"x_min":54,"x_max":648,"o":"m 54 0 l 54 996 l 648 996 l 648 0 l 54 0 m 410 195 l 410 800 l 293 800 l 293 195 l 410 195 z "},"p":{"ha":703,"x_min":54,"x_max":648,"o":"m 54 0 l 54 996 l 648 996 l 648 635 l 434 401 l 293 401 l 293 0 l 54 0 m 293 597 l 342 597 l 410 667 l 410 800 l 293 800 l 293 597 z "},"q":{"ha":703,"x_min":54,"x_max":648,"o":"m 54 0 l 54 996 l 648 996 l 648 0 l 469 0 l 469 -141 l 231 -141 l 231 0 l 54 0 m 410 195 l 410 800 l 293 800 l 293 195 l 410 195 z "},"r":{"ha":703,"x_min":54,"x_max":648,"o":"m 54 0 l 54 996 l 648 996 l 648 635 l 521 496 l 648 361 l 648 0 l 410 0 l 410 358 l 366 401 l 293 401 l 293 0 l 54 0 m 293 597 l 366 597 l 410 640 l 410 800 l 293 800 l 293 597 z "},"s":{"ha":703,"x_min":54,"x_max":648,"o":"m 54 663 l 54 996 l 648 996 l 648 648 l 410 648 l 410 800 l 293 800 l 293 684 l 648 334 l 648 0 l 54 0 l 54 347 l 293 347 l 293 195 l 410 195 l 410 312 l 54 663 z "},"t":{"ha":703,"x_min":54,"x_max":648,"o":"m 54 800 l 54 996 l 648 996 l 648 800 l 469 800 l 469 0 l 231 0 l 231 800 l 54 800 z "},"u":{"ha":703,"x_min":54,"x_max":648,"o":"m 54 996 l 293 996 l 293 195 l 410 195 l 410 996 l 648 996 l 648 0 l 54 0 l 54 996 z "},"v":{"ha":673,"x_min":41,"x_max":632,"o":"m 393 996 l 632 996 l 587 0 l 84 0 l 41 996 l 279 996 l 304 195 l 366 195 l 393 996 z "},"w":{"ha":1023,"x_min":41,"x_max":982,"o":"m 84 0 l 41 996 l 279 996 l 304 195 l 366 195 l 393 996 l 629 996 l 656 195 l 719 195 l 743 996 l 982 996 l 939 0 l 537 0 l 521 293 l 502 293 l 486 0 l 84 0 z "},"x":{"ha":703,"x_min":54,"x_max":648,"o":"m 410 640 l 410 996 l 648 996 l 648 635 l 521 496 l 648 361 l 648 0 l 410 0 l 410 358 l 366 401 l 336 401 l 293 358 l 293 0 l 54 0 l 54 361 l 182 496 l 54 635 l 54 996 l 293 996 l 293 640 l 336 597 l 366 597 l 410 640 z "},"y":{"ha":703,"x_min":54,"x_max":648,"o":"m 410 640 l 410 996 l 648 996 l 648 635 l 472 446 l 472 0 l 233 0 l 233 444 l 54 635 l 54 996 l 293 996 l 293 640 l 336 597 l 366 597 l 410 640 z "},"z":{"ha":703,"x_min":54,"x_max":648,"o":"m 54 334 l 410 692 l 410 800 l 54 800 l 54 996 l 648 996 l 648 960 l 648 661 l 293 304 l 293 195 l 648 195 l 648 0 l 54 0 l 54 334 z "},"{":{"ha":694,"x_min":0,"x_max":0,"o":""},"|":{"ha":358,"x_min":60,"x_max":298,"o":"m 60 1034 l 298 1034 l 298 -38 l 60 -38 l 60 1034 z "},"}":{"ha":694,"x_min":0,"x_max":0,"o":""},"~":{"ha":694,"x_min":0,"x_max":0,"o":""}," ":{"ha":694,"x_min":0,"x_max":0,"o":""},"¡":{"ha":439,"x_min":68,"x_max":372,"o":"m 68 0 l 68 309 l 100 445 l 100 673 l 339 673 l 339 445 l 372 309 l 372 0 l 68 0 m 100 996 l 339 996 l 339 800 l 100 800 l 100 996 z "},"¢":{"ha":694,"x_min":0,"x_max":0,"o":""},"£":{"ha":694,"x_min":0,"x_max":0,"o":""},"¤":{"ha":694,"x_min":0,"x_max":0,"o":""},"¥":{"ha":703,"x_min":54,"x_max":648,"o":"m 410 640 l 410 996 l 648 996 l 648 635 l 547 526 l 594 526 l 594 331 l 472 331 l 472 263 l 594 263 l 594 68 l 472 68 l 472 0 l 233 0 l 233 68 l 106 68 l 106 263 l 233 263 l 233 331 l 106 331 l 106 526 l 156 526 l 54 635 l 54 996 l 293 996 l 293 640 l 336 597 l 366 597 l 410 640 z "},"¦":{"ha":694,"x_min":0,"x_max":0,"o":""},"§":{"ha":694,"x_min":0,"x_max":0,"o":""},"¨":{"ha":670,"x_min":73,"x_max":597,"o":"m 73 1074 l 73 1278 l 288 1278 l 288 1074 l 73 1074 m 382 1074 l 382 1278 l 597 1278 l 597 1074 l 382 1074 z "},"©":{"ha":694,"x_min":0,"x_max":0,"o":""},"ª":{"ha":694,"x_min":0,"x_max":0,"o":""},"«":{"ha":694,"x_min":0,"x_max":0,"o":""},"¬":{"ha":694,"x_min":0,"x_max":0,"o":""},"­":{"ha":694,"x_min":0,"x_max":0,"o":""},"®":{"ha":694,"x_min":0,"x_max":0,"o":""},"¯":{"ha":694,"x_min":0,"x_max":0,"o":""},"°":{"ha":681,"x_min":190,"x_max":491,"o":"m 190 1055 l 190 1335 l 491 1335 l 491 1055 l 190 1055 m 297 1150 l 381 1150 l 381 1232 l 297 1232 l 297 1150 z "},"±":{"ha":694,"x_min":0,"x_max":0,"o":""},"²":{"ha":694,"x_min":0,"x_max":0,"o":""},"³":{"ha":694,"x_min":0,"x_max":0,"o":""},"´":{"ha":681,"x_min":95,"x_max":586,"o":"m 538 1344 l 586 1171 l 142 1048 l 95 1222 l 538 1344 z "},"µ":{"ha":694,"x_min":0,"x_max":0,"o":""},"¶":{"ha":694,"x_min":0,"x_max":0,"o":""},"·":{"ha":694,"x_min":0,"x_max":0,"o":""},"¸":{"ha":540,"x_min":71,"x_max":469,"o":"m 469 0 l 469 -73 l 279 -279 l 71 -279 l 71 -84 l 187 -84 l 231 -41 l 231 0 l 469 0 z "},"¹":{"ha":694,"x_min":0,"x_max":0,"o":""},"º":{"ha":694,"x_min":0,"x_max":0,"o":""},"»":{"ha":694,"x_min":0,"x_max":0,"o":""},"¼":{"ha":694,"x_min":0,"x_max":0,"o":""},"½":{"ha":694,"x_min":0,"x_max":0,"o":""},"¾":{"ha":694,"x_min":0,"x_max":0,"o":""},"¿":{"ha":730,"x_min":68,"x_max":662,"o":"m 486 697 l 486 491 l 307 312 l 307 195 l 423 195 l 423 339 l 662 339 l 662 0 l 68 0 l 68 320 l 250 502 l 250 697 l 486 697 m 486 996 l 486 800 l 247 800 l 247 996 l 486 996 z "},"À":{"ha":673,"x_min":41,"x_max":632,"o":"m 41 0 l 84 996 l 587 996 l 632 0 l 393 0 l 387 292 l 286 292 l 279 0 l 41 0 m 377 488 l 366 800 l 304 800 l 293 488 l 377 488 m 138 1344 l 582 1222 l 534 1048 l 91 1171 l 138 1344 z "},"Á":{"ha":673,"x_min":41,"x_max":632,"o":"m 41 0 l 84 996 l 587 996 l 632 0 l 393 0 l 387 292 l 286 292 l 279 0 l 41 0 m 377 488 l 366 800 l 304 800 l 293 488 l 377 488 m 534 1344 l 582 1171 l 138 1048 l 91 1222 l 534 1344 z "},"Â":{"ha":673,"x_min":41,"x_max":632,"o":"m 41 0 l 84 996 l 587 996 l 632 0 l 393 0 l 387 292 l 286 292 l 279 0 l 41 0 m 377 488 l 366 800 l 304 800 l 293 488 l 377 488 m 138 1048 l 91 1222 l 336 1344 l 582 1222 l 534 1048 l 336 1147 l 138 1048 z "},"Ã":{"ha":673,"x_min":41,"x_max":632,"o":"m 41 0 l 84 996 l 587 996 l 632 0 l 393 0 l 387 292 l 286 292 l 279 0 l 41 0 m 377 488 l 366 800 l 304 800 l 293 488 l 377 488 m 155 1048 l 107 1222 l 277 1341 l 408 1251 l 521 1344 l 568 1171 l 401 1048 l 271 1141 l 155 1048 z "},"Ä":{"ha":673,"x_min":41,"x_max":632,"o":"m 41 0 l 84 996 l 587 996 l 632 0 l 393 0 l 387 292 l 286 292 l 279 0 l 41 0 m 377 488 l 366 800 l 304 800 l 293 488 l 377 488 m 73 1074 l 73 1278 l 288 1278 l 288 1074 l 73 1074 m 382 1074 l 382 1278 l 597 1278 l 597 1074 l 382 1074 z "},"Å":{"ha":694,"x_min":41,"x_max":632,"o":"m 41 0 l 84 996 l 587 996 l 632 0 l 393 0 l 387 292 l 286 292 l 279 0 l 41 0 m 377 488 l 366 800 l 304 800 l 293 488 l 377 488 m 187 1055 l 187 1335 l 488 1335 l 488 1055 l 187 1055 m 294 1150 l 378 1150 l 378 1232 l 294 1232 l 294 1150 z "},"Æ":{"ha":694,"x_min":0,"x_max":0,"o":""},"Ç":{"ha":703,"x_min":54,"x_max":648,"o":"m 54 996 l 648 996 l 648 656 l 410 656 l 410 800 l 293 800 l 293 195 l 410 195 l 410 339 l 648 339 l 648 0 l 477 0 l 477 -73 l 288 -279 l 79 -279 l 79 -84 l 195 -84 l 239 -41 l 239 0 l 54 0 l 54 996 z "},"È":{"ha":703,"x_min":54,"x_max":648,"o":"m 54 0 l 54 996 l 648 996 l 648 800 l 293 800 l 293 597 l 589 597 l 589 401 l 293 401 l 293 195 l 648 195 l 648 0 l 54 0 m 152 1344 l 595 1222 l 548 1048 l 104 1171 l 152 1344 z "},"É":{"ha":703,"x_min":54,"x_max":648,"o":"m 54 0 l 54 996 l 648 996 l 648 800 l 293 800 l 293 597 l 589 597 l 589 401 l 293 401 l 293 195 l 648 195 l 648 0 l 54 0 m 548 1344 l 595 1171 l 152 1048 l 104 1222 l 548 1344 z "},"Ê":{"ha":703,"x_min":54,"x_max":648,"o":"m 54 0 l 54 996 l 648 996 l 648 800 l 293 800 l 293 597 l 589 597 l 589 401 l 293 401 l 293 195 l 648 195 l 648 0 l 54 0 m 152 1048 l 104 1222 l 350 1344 l 595 1222 l 548 1048 l 350 1147 l 152 1048 z "},"Ë":{"ha":703,"x_min":54,"x_max":648,"o":"m 54 0 l 54 996 l 648 996 l 648 800 l 293 800 l 293 597 l 589 597 l 589 401 l 293 401 l 293 195 l 648 195 l 648 0 l 54 0 m 90 1074 l 90 1278 l 304 1278 l 304 1074 l 90 1074 m 399 1074 l 399 1278 l 613 1278 l 613 1074 l 399 1074 z "},"Ì":{"ha":336,"x_min":-3,"x_max":339,"o":"m 50 996 l 289 996 l 289 0 l 50 0 l 50 996 m 45 1344 l 339 1222 l 292 1048 l -3 1171 l 45 1344 z "},"Í":{"ha":336,"x_min":-3,"x_max":339,"o":"m 50 996 l 289 996 l 289 0 l 50 0 l 50 996 m 292 1344 l 339 1171 l 45 1048 l -3 1222 l 292 1344 z "},"Î":{"ha":347,"x_min":-35,"x_max":382,"o":"m 53 996 l 292 996 l 292 0 l 53 0 l 53 996 m 382 1222 l 335 1048 l 174 1142 l 12 1048 l -35 1222 l 172 1343 l 382 1222 z "},"Ï":{"ha":345,"x_min":-79,"x_max":423,"o":"m 53 996 l 292 996 l 292 0 l 53 0 l 53 996 m -79 1077 l -79 1280 l 136 1280 l 136 1077 l -79 1077 m 209 1077 l 209 1280 l 423 1280 l 423 1077 l 209 1077 z "},"Ð":{"ha":694,"x_min":0,"x_max":0,"o":""},"Ñ":{"ha":703,"x_min":54,"x_max":648,"o":"m 54 0 l 54 996 l 293 996 l 410 610 l 410 996 l 648 996 l 648 0 l 418 0 l 293 385 l 293 0 l 54 0 m 168 1048 l 121 1222 l 290 1341 l 422 1251 l 534 1344 l 582 1171 l 415 1048 l 285 1141 l 168 1048 z "},"Ò":{"ha":703,"x_min":54,"x_max":648,"o":"m 54 0 l 54 996 l 648 996 l 648 0 l 54 0 m 410 195 l 410 800 l 293 800 l 293 195 l 410 195 m 155 1344 l 598 1222 l 551 1048 l 107 1171 l 155 1344 z "},"Ó":{"ha":703,"x_min":54,"x_max":648,"o":"m 54 0 l 54 996 l 648 996 l 648 0 l 54 0 m 410 195 l 410 800 l 293 800 l 293 195 l 410 195 m 551 1344 l 598 1171 l 155 1048 l 107 1222 l 551 1344 z "},"Ô":{"ha":703,"x_min":54,"x_max":648,"o":"m 54 0 l 54 996 l 648 996 l 648 0 l 54 0 m 410 195 l 410 800 l 293 800 l 293 195 l 410 195 m 152 1048 l 104 1222 l 350 1344 l 595 1222 l 548 1048 l 350 1147 l 152 1048 z "},"Õ":{"ha":703,"x_min":54,"x_max":648,"o":"m 54 0 l 54 996 l 648 996 l 648 0 l 54 0 m 410 195 l 410 800 l 293 800 l 293 195 l 410 195 m 168 1048 l 121 1222 l 290 1341 l 422 1251 l 534 1344 l 582 1171 l 415 1048 l 285 1141 l 168 1048 z "},"Ö":{"ha":703,"x_min":54,"x_max":648,"o":"m 54 0 l 54 996 l 648 996 l 648 0 l 54 0 m 410 195 l 410 800 l 293 800 l 293 195 l 410 195 m 92 1074 l 92 1278 l 307 1278 l 307 1074 l 92 1074 m 401 1074 l 401 1278 l 616 1278 l 616 1074 l 401 1074 z "},"×":{"ha":581,"x_min":57,"x_max":524,"o":"m 194 728 l 289 635 l 382 730 l 522 593 l 429 498 l 524 404 l 387 264 l 292 358 l 198 263 l 58 400 l 152 495 l 57 589 l 194 728 z "},"Ø":{"ha":727,"x_min":54,"x_max":673,"o":"m 54 0 l 54 996 l 458 996 l 475 1047 l 602 1047 l 586 996 l 673 996 l 673 0 l 279 0 l 260 -62 l 133 -62 l 152 0 l 54 0 m 434 195 l 434 500 l 340 195 l 434 195 m 293 800 l 293 457 l 399 800 l 293 800 z "},"Ù":{"ha":703,"x_min":54,"x_max":648,"o":"m 54 996 l 293 996 l 293 195 l 410 195 l 410 996 l 648 996 l 648 0 l 54 0 l 54 996 m 155 1344 l 598 1222 l 551 1048 l 107 1171 l 155 1344 z "},"Ú":{"ha":703,"x_min":54,"x_max":648,"o":"m 54 996 l 293 996 l 293 195 l 410 195 l 410 996 l 648 996 l 648 0 l 54 0 l 54 996 m 551 1344 l 598 1171 l 155 1048 l 107 1222 l 551 1344 z "},"Û":{"ha":703,"x_min":54,"x_max":648,"o":"m 54 996 l 293 996 l 293 195 l 410 195 l 410 996 l 648 996 l 648 0 l 54 0 l 54 996 m 152 1048 l 104 1222 l 350 1344 l 595 1222 l 548 1048 l 350 1147 l 152 1048 z "},"Ü":{"ha":703,"x_min":54,"x_max":648,"o":"m 54 996 l 293 996 l 293 195 l 410 195 l 410 996 l 648 996 l 648 0 l 54 0 l 54 996 m 92 1074 l 92 1278 l 307 1278 l 307 1074 l 92 1074 m 401 1074 l 401 1278 l 616 1278 l 616 1074 l 401 1074 z "},"Ý":{"ha":703,"x_min":54,"x_max":648,"o":"m 410 640 l 410 996 l 648 996 l 648 635 l 472 446 l 472 0 l 233 0 l 233 444 l 54 635 l 54 996 l 293 996 l 293 640 l 336 597 l 366 597 l 410 640 m 551 1344 l 598 1171 l 155 1048 l 107 1222 l 551 1344 z "},"Þ":{"ha":694,"x_min":0,"x_max":0,"o":""},"ß":{"ha":703,"x_min":54,"x_max":648,"o":"m 54 -46 l 54 779 l 271 996 l 648 996 l 648 632 l 528 496 l 648 376 l 648 0 l 336 0 l 336 195 l 412 195 l 412 353 l 366 401 l 290 401 l 290 -46 l 54 -46 m 358 597 l 410 646 l 410 800 l 369 800 l 290 722 l 290 597 l 358 597 z "},"à":{"ha":673,"x_min":41,"x_max":632,"o":"m 41 0 l 84 996 l 587 996 l 632 0 l 393 0 l 387 292 l 286 292 l 279 0 l 41 0 m 377 488 l 366 800 l 304 800 l 293 488 l 377 488 m 138 1344 l 582 1222 l 534 1048 l 91 1171 l 138 1344 z "},"á":{"ha":673,"x_min":41,"x_max":632,"o":"m 41 0 l 84 996 l 587 996 l 632 0 l 393 0 l 387 292 l 286 292 l 279 0 l 41 0 m 377 488 l 366 800 l 304 800 l 293 488 l 377 488 m 534 1344 l 582 1171 l 138 1048 l 91 1222 l 534 1344 z "},"â":{"ha":673,"x_min":41,"x_max":632,"o":"m 41 0 l 84 996 l 587 996 l 632 0 l 393 0 l 387 292 l 286 292 l 279 0 l 41 0 m 377 488 l 366 800 l 304 800 l 293 488 l 377 488 m 138 1048 l 91 1222 l 336 1344 l 582 1222 l 534 1048 l 336 1147 l 138 1048 z "},"ã":{"ha":673,"x_min":41,"x_max":632,"o":"m 41 0 l 84 996 l 587 996 l 632 0 l 393 0 l 387 292 l 286 292 l 279 0 l 41 0 m 377 488 l 366 800 l 304 800 l 293 488 l 377 488 m 155 1048 l 107 1222 l 277 1341 l 408 1251 l 521 1344 l 568 1171 l 401 1048 l 271 1141 l 155 1048 z "},"ä":{"ha":673,"x_min":41,"x_max":632,"o":"m 41 0 l 84 996 l 587 996 l 632 0 l 393 0 l 387 292 l 286 292 l 279 0 l 41 0 m 377 488 l 366 800 l 304 800 l 293 488 l 377 488 m 73 1074 l 73 1278 l 288 1278 l 288 1074 l 73 1074 m 382 1074 l 382 1278 l 597 1278 l 597 1074 l 382 1074 z "},"å":{"ha":673,"x_min":41,"x_max":632,"o":"m 41 0 l 84 996 l 587 996 l 632 0 l 393 0 l 387 292 l 286 292 l 279 0 l 41 0 m 377 488 l 366 800 l 304 800 l 293 488 l 377 488 m 187 1055 l 187 1335 l 488 1335 l 488 1055 l 187 1055 m 294 1150 l 378 1150 l 378 1232 l 294 1232 l 294 1150 z "},"æ":{"ha":694,"x_min":0,"x_max":0,"o":""},"ç":{"ha":703,"x_min":54,"x_max":648,"o":"m 54 996 l 648 996 l 648 656 l 410 656 l 410 800 l 293 800 l 293 195 l 410 195 l 410 339 l 648 339 l 648 0 l 477 0 l 477 -73 l 288 -279 l 79 -279 l 79 -84 l 195 -84 l 239 -41 l 239 0 l 54 0 l 54 996 z "},"è":{"ha":703,"x_min":54,"x_max":648,"o":"m 54 0 l 54 996 l 648 996 l 648 800 l 293 800 l 293 597 l 589 597 l 589 401 l 293 401 l 293 195 l 648 195 l 648 0 l 54 0 m 152 1344 l 595 1222 l 548 1048 l 104 1171 l 152 1344 z "},"é":{"ha":703,"x_min":54,"x_max":648,"o":"m 54 0 l 54 996 l 648 996 l 648 800 l 293 800 l 293 597 l 589 597 l 589 401 l 293 401 l 293 195 l 648 195 l 648 0 l 54 0 m 548 1344 l 595 1171 l 152 1048 l 104 1222 l 548 1344 z "},"ê":{"ha":703,"x_min":54,"x_max":648,"o":"m 54 0 l 54 996 l 648 996 l 648 800 l 293 800 l 293 597 l 589 597 l 589 401 l 293 401 l 293 195 l 648 195 l 648 0 l 54 0 m 152 1048 l 104 1222 l 350 1344 l 595 1222 l 548 1048 l 350 1147 l 152 1048 z "},"ë":{"ha":703,"x_min":54,"x_max":648,"o":"m 54 0 l 54 996 l 648 996 l 648 800 l 293 800 l 293 597 l 589 597 l 589 401 l 293 401 l 293 195 l 648 195 l 648 0 l 54 0 m 90 1074 l 90 1278 l 304 1278 l 304 1074 l 90 1074 m 399 1074 l 399 1278 l 613 1278 l 613 1074 l 399 1074 z "},"ì":{"ha":336,"x_min":-3,"x_max":339,"o":"m 50 996 l 289 996 l 289 0 l 50 0 l 50 996 m 45 1344 l 339 1222 l 292 1048 l -3 1171 l 45 1344 z "},"í":{"ha":336,"x_min":-3,"x_max":339,"o":"m 50 996 l 289 996 l 289 0 l 50 0 l 50 996 m 292 1344 l 339 1171 l 45 1048 l -3 1222 l 292 1344 z "},"î":{"ha":347,"x_min":-35,"x_max":382,"o":"m 53 996 l 292 996 l 292 0 l 53 0 l 53 996 m 382 1222 l 335 1048 l 174 1142 l 12 1048 l -35 1222 l 172 1343 l 382 1222 z "},"ï":{"ha":345,"x_min":-79,"x_max":423,"o":"m 53 996 l 292 996 l 292 0 l 53 0 l 53 996 m -79 1077 l -79 1280 l 136 1280 l 136 1077 l -79 1077 m 209 1077 l 209 1280 l 423 1280 l 423 1077 l 209 1077 z "},"ð":{"ha":694,"x_min":0,"x_max":0,"o":""},"ñ":{"ha":703,"x_min":54,"x_max":648,"o":"m 54 0 l 54 996 l 293 996 l 410 610 l 410 996 l 648 996 l 648 0 l 418 0 l 293 385 l 293 0 l 54 0 m 168 1048 l 121 1222 l 290 1341 l 422 1251 l 534 1344 l 582 1171 l 415 1048 l 285 1141 l 168 1048 z "},"ò":{"ha":703,"x_min":54,"x_max":648,"o":"m 54 0 l 54 996 l 648 996 l 648 0 l 54 0 m 410 195 l 410 800 l 293 800 l 293 195 l 410 195 m 155 1344 l 598 1222 l 551 1048 l 107 1171 l 155 1344 z "},"ó":{"ha":703,"x_min":54,"x_max":648,"o":"m 54 0 l 54 996 l 648 996 l 648 0 l 54 0 m 410 195 l 410 800 l 293 800 l 293 195 l 410 195 m 551 1344 l 598 1171 l 155 1048 l 107 1222 l 551 1344 z "},"ô":{"ha":703,"x_min":54,"x_max":648,"o":"m 54 0 l 54 996 l 648 996 l 648 0 l 54 0 m 410 195 l 410 800 l 293 800 l 293 195 l 410 195 m 152 1048 l 104 1222 l 350 1344 l 595 1222 l 548 1048 l 350 1147 l 152 1048 z "},"õ":{"ha":703,"x_min":54,"x_max":648,"o":"m 54 0 l 54 996 l 648 996 l 648 0 l 54 0 m 410 195 l 410 800 l 293 800 l 293 195 l 410 195 m 168 1048 l 121 1222 l 290 1341 l 422 1251 l 534 1344 l 582 1171 l 415 1048 l 285 1141 l 168 1048 z "},"ö":{"ha":703,"x_min":54,"x_max":648,"o":"m 54 0 l 54 996 l 648 996 l 648 0 l 54 0 m 410 195 l 410 800 l 293 800 l 293 195 l 410 195 m 92 1074 l 92 1278 l 307 1278 l 307 1074 l 92 1074 m 401 1074 l 401 1278 l 616 1278 l 616 1074 l 401 1074 z "},"÷":{"ha":575,"x_min":57,"x_max":518,"o":"m 168 665 l 168 860 l 407 860 l 407 665 l 168 665 m 57 399 l 57 594 l 518 594 l 518 399 l 57 399 m 168 328 l 407 328 l 407 133 l 168 133 l 168 328 z "},"ø":{"ha":727,"x_min":54,"x_max":673,"o":"m 54 0 l 54 996 l 458 996 l 475 1047 l 602 1047 l 586 996 l 673 996 l 673 0 l 279 0 l 260 -62 l 133 -62 l 152 0 l 54 0 m 434 195 l 434 500 l 340 195 l 434 195 m 293 800 l 293 457 l 399 800 l 293 800 z "},"ù":{"ha":703,"x_min":54,"x_max":648,"o":"m 54 996 l 293 996 l 293 195 l 410 195 l 410 996 l 648 996 l 648 0 l 54 0 l 54 996 m 155 1344 l 598 1222 l 551 1048 l 107 1171 l 155 1344 z "},"ú":{"ha":703,"x_min":54,"x_max":648,"o":"m 54 996 l 293 996 l 293 195 l 410 195 l 410 996 l 648 996 l 648 0 l 54 0 l 54 996 m 551 1344 l 598 1171 l 155 1048 l 107 1222 l 551 1344 z "},"û":{"ha":703,"x_min":54,"x_max":648,"o":"m 54 996 l 293 996 l 293 195 l 410 195 l 410 996 l 648 996 l 648 0 l 54 0 l 54 996 m 152 1048 l 104 1222 l 350 1344 l 595 1222 l 548 1048 l 350 1147 l 152 1048 z "},"ü":{"ha":703,"x_min":54,"x_max":648,"o":"m 54 996 l 293 996 l 293 195 l 410 195 l 410 996 l 648 996 l 648 0 l 54 0 l 54 996 m 92 1074 l 92 1278 l 307 1278 l 307 1074 l 92 1074 m 401 1074 l 401 1278 l 616 1278 l 616 1074 l 401 1074 z "},"ý":{"ha":703,"x_min":54,"x_max":648,"o":"m 410 640 l 410 996 l 648 996 l 648 635 l 472 446 l 472 0 l 233 0 l 233 444 l 54 635 l 54 996 l 293 996 l 293 640 l 336 597 l 366 597 l 410 640 m 551 1344 l 598 1171 l 155 1048 l 107 1222 l 551 1344 z "},"þ":{"ha":694,"x_min":0,"x_max":0,"o":""},"ÿ":{"ha":703,"x_min":54,"x_max":648,"o":"m 410 640 l 410 996 l 648 996 l 648 635 l 472 446 l 472 0 l 233 0 l 233 444 l 54 635 l 54 996 l 293 996 l 293 640 l 336 597 l 366 597 l 410 640 m 92 1074 l 92 1278 l 307 1278 l 307 1074 l 92 1074 m 401 1074 l 401 1278 l 616 1278 l 616 1074 l 401 1074 z "},"Œ":{"ha":694,"x_min":0,"x_max":0,"o":""},"œ":{"ha":694,"x_min":0,"x_max":0,"o":""},"Š":{"ha":703,"x_min":54,"x_max":648,"o":"m 54 663 l 54 996 l 648 996 l 648 648 l 410 648 l 410 800 l 293 800 l 293 684 l 648 334 l 648 0 l 54 0 l 54 347 l 293 347 l 293 195 l 410 195 l 410 312 l 54 663 m 152 1344 l 350 1245 l 548 1344 l 595 1171 l 350 1048 l 104 1171 l 152 1344 z "},"š":{"ha":703,"x_min":54,"x_max":648,"o":"m 54 663 l 54 996 l 648 996 l 648 648 l 410 648 l 410 800 l 293 800 l 293 684 l 648 334 l 648 0 l 54 0 l 54 347 l 293 347 l 293 195 l 410 195 l 410 312 l 54 663 m 152 1344 l 350 1245 l 548 1344 l 595 1171 l 350 1048 l 104 1171 l 152 1344 z "},"Ÿ":{"ha":703,"x_min":54,"x_max":648,"o":"m 410 640 l 410 996 l 648 996 l 648 635 l 472 446 l 472 0 l 233 0 l 233 444 l 54 635 l 54 996 l 293 996 l 293 640 l 336 597 l 366 597 l 410 640 m 92 1074 l 92 1278 l 307 1278 l 307 1074 l 92 1074 m 401 1074 l 401 1278 l 616 1278 l 616 1074 l 401 1074 z "},"Ž":{"ha":694,"x_min":0,"x_max":0,"o":""},"ž":{"ha":694,"x_min":0,"x_max":0,"o":""},"ƒ":{"ha":694,"x_min":0,"x_max":0,"o":""},"ˆ":{"ha":675,"x_min":92,"x_max":583,"o":"m 140 1048 l 92 1222 l 338 1344 l 583 1222 l 536 1048 l 338 1147 l 140 1048 z "},"˜":{"ha":678,"x_min":109,"x_max":570,"o":"m 156 1048 l 109 1222 l 278 1341 l 410 1251 l 522 1344 l 570 1171 l 403 1048 l 273 1141 l 156 1048 z "},"–":{"ha":694,"x_min":0,"x_max":0,"o":""},"—":{"ha":694,"x_min":0,"x_max":0,"o":""},"‘":{"ha":347,"x_min":54,"x_max":293,"o":"m 54 1093 l 179 1093 l 293 979 l 293 795 l 54 795 l 54 1093 z "},"’":{"ha":347,"x_min":54,"x_max":293,"o":"m 54 795 l 54 1093 l 293 1093 l 293 909 l 179 795 l 54 795 z "},"‚":{"ha":694,"x_min":0,"x_max":0,"o":""},"“":{"ha":551,"x_min":54,"x_max":496,"o":"m 54 1093 l 136 1093 l 250 979 l 250 795 l 54 795 l 54 1093 m 301 1093 l 382 1093 l 496 979 l 496 795 l 301 795 l 301 1093 z "},"”":{"ha":551,"x_min":54,"x_max":496,"o":"m 54 795 l 54 1093 l 250 1093 l 250 909 l 136 795 l 54 795 m 301 795 l 301 1093 l 496 1093 l 496 909 l 382 795 l 301 795 z "},"„":{"ha":551,"x_min":54,"x_max":496,"o":"m 54 -103 l 54 195 l 250 195 l 250 11 l 136 -103 l 54 -103 m 301 -103 l 301 195 l 496 195 l 496 11 l 382 -103 l 301 -103 z "},"†":{"ha":1326,"x_min":0,"x_max":0,"o":""},"‡":{"ha":1354,"x_min":54,"x_max":1299,"o":"m 54 582 q 235 1017 54 838 q 677 1196 416 1196 q 1118 1017 937 1196 q 1299 582 1299 838 q 1118 146 1299 326 q 677 -33 937 -33 q 235 146 416 -33 q 54 582 54 326 m 243 582 q 369 278 243 403 q 677 153 495 153 q 985 278 859 153 q 1111 582 1111 403 q 985 886 1111 761 q 677 1010 859 1010 q 369 886 495 1010 q 243 582 243 761 m 370 746 q 436 872 373 812 q 617 930 499 932 l 703 930 q 780 856 745 929 l 800 930 q 892 922 837 933 q 982 882 948 910 q 1004 788 1012 842 q 955 652 990 693 q 886 614 920 612 q 727 678 732 663 l 735 704 q 693 728 718 724 l 658 728 q 629 677 629 722 q 771 609 620 665 q 944 528 922 553 q 983 415 987 488 q 918 289 981 349 q 736 231 854 229 l 651 231 q 574 305 609 232 l 553 231 q 461 239 517 228 q 372 279 406 251 q 350 373 342 319 q 399 509 363 468 q 468 547 434 549 q 627 483 621 498 l 618 457 q 661 433 636 437 l 696 433 q 724 484 724 439 q 582 557 734 496 q 410 633 430 617 q 370 746 366 673 z "},"•":{"ha":694,"x_min":0,"x_max":0,"o":""},"…":{"ha":694,"x_min":0,"x_max":0,"o":""},"‰":{"ha":694,"x_min":0,"x_max":0,"o":""},"‹":{"ha":694,"x_min":0,"x_max":0,"o":""},"›":{"ha":694,"x_min":0,"x_max":0,"o":""},"€":{"ha":776,"x_min":57,"x_max":719,"o":"m 125 996 l 719 996 l 719 656 l 480 656 l 480 800 l 363 800 l 363 727 l 431 727 l 431 553 l 363 553 l 363 448 l 431 448 l 431 274 l 363 274 l 363 195 l 480 195 l 480 339 l 719 339 l 719 0 l 125 0 l 125 274 l 57 274 l 57 448 l 125 448 l 125 553 l 57 553 l 57 727 l 125 727 l 125 996 z "},"™":{"ha":694,"x_min":0,"x_max":0,"o":""},"∙":{"ha":694,"x_min":0,"x_max":0,"o":""}}}
